# xmcd CD database file
#
# Track frame offsets:
#	150
#	18065
#	37211
#	57142
#	74528
#	92717
#	110982
#	127533
#	144945
#	165125
#	183193
#
# Disc length: 2646 seconds
#
# Revision: 0
# Processed by: cddbd v1.5.2PL0 Copyright (c) Steve Scherf et al.
# Submitted via: CDex 1.51
#
DISCID=870a540b
DTITLE=Dante Vargas and The Cat Band - Mis Raices
DYEAR=2010
DGENRE=Salsa
TTITLE0=Soy la luz
TTITLE1=Te vas
TTITLE2=Miguelio
TTITLE3=Mi lando
TTITLE4=Primer amor
TTITLE5=Motor y motivo
TTITLE6=La Guarapachanga
TTITLE7=Los ratones forman fiesta
TTITLE8=Fue un error
TTITLE9=Mirame
TTITLE10=Mi pequena diva
EXTD=YEAR: 2010
EXTT0=
EXTT1=
EXTT2=
EXTT3=
EXTT4=
EXTT5=
EXTT6=
EXTT7=
EXTT8=
EXTT9=
EXTT10=
PLAYORDER=
